<svg width="60" height="54" viewBox="0 0 60 54" fill="none" xmlns="http://www.w3.org/2000/svg">
<path fill-rule="evenodd" clip-rule="evenodd" d="M47.4004 54L27.4735 48.6287L20.0035 53.7907L0 48.3989L0.267611 28.876L13.079 20.5852L16.4313 21.4962L16.8284 5.89363L33.9347 0L48.3201 8.42332L48.5244 22.9812L59.4446 25.9483L60 45.7016L47.4004 54ZM45.0144 48.7964L44.9292 36.3138L31.6103 33.1017L31.5182 45.2325L45.0144 48.7964ZM24.855 29.9489L21.5539 27.9814L15.3367 32.1432L19.3324 33.277L24.855 29.9489ZM4.01531 45.0232L18.7241 49.1505L18.6389 36.6679L13.613 35.3618L13.3742 41.3656L8.72295 39.9709L9.01819 34.1681L4.10739 32.8919L4.01531 45.0232ZM17.4505 25.5361L13.9888 24.7177L5.97376 29.4875L10.4944 30.7702L17.9023 25.8052L17.4505 25.5361ZM20.1082 22.5632L30.0662 28.6609V16.6708L26.6413 14.9208L26.639 20.4908L22.9224 18.1903L22.8442 12.9797L20.1352 11.5955L20.1082 22.5632ZM33.4824 3.62247L21.3927 7.85114L23.9963 9.13152L36.0054 5.01424L33.4824 3.62247ZM40.8005 7.65826L28.7747 11.4806L31.6661 12.9023L43.5555 9.17783L40.8005 7.65826ZM53.7327 29.5754L47.3492 27.8518L42.0206 29.5725L50.5364 31.411L50.8592 39.0646L53.8133 37.1645L53.7327 29.5754Z" fill="#1D87D3"/>
</svg>
