<svg width="46" height="54" viewBox="0 0 46 54" fill="none" xmlns="http://www.w3.org/2000/svg">
<path fill-rule="evenodd" clip-rule="evenodd" d="M28.5175 54L0 49.0571L5.69928 0L46 5.68776L41.6685 44.1897L28.5175 54ZM8.53777 3.98456L3.99631 46.1121L25.5656 50.0966L27.268 39.2805L38.6207 40.4137L42.026 8.53351L8.53777 3.98456ZM33.5223 17.1382L34.0612 13.1399L38.1195 13.7143L37.6115 17.7413L33.5223 17.1382ZM36.6067 25.7054L32.458 25.0343L33.0515 20.6333L37.1816 21.1446L36.6067 25.7054ZM35.5877 33.7775L31.364 33.1538L31.9686 28.6679L36.165 29.1986L35.5877 33.7775ZM24.8123 15.8533L25.4151 11.9156L31.7722 12.8153L31.0902 16.7792L24.8123 15.8533ZM29.7471 24.596L23.6272 23.6058L24.2486 19.5438L30.4831 20.3161L29.7471 24.596ZM28.3521 32.7099L22.3703 31.8271L23.0263 27.5372L29.1091 28.3064L28.3521 32.7099ZM11.6736 13.9147L12.0664 10.0251L22.6106 11.5185L22.0128 15.4406L11.6736 13.9147ZM20.8389 23.1537L10.9042 21.5461L11.2685 17.9349L21.4417 19.1954L20.8389 23.1537ZM19.5807 31.4157L10.0499 30.0096L10.46 25.9495L20.2256 27.1845L19.5807 31.4157Z" fill="#1D87D3"/>
</svg>
