<svg width="75" height="46" viewBox="0 0 75 46" fill="none" xmlns="http://www.w3.org/2000/svg">
<path fill-rule="evenodd" clip-rule="evenodd" d="M74.959 46L64.0973 45.8154C52.3481 42.1791 23.129 41.3636 10.9283 45.6871L0.0923519 45.9385L0 42.2714H1.56485L0.877343 22.4076L11.8518 21.4947C13.0335 23.407 14.6382 25.0228 16.5426 26.2178C18.4469 27.4128 20.6001 28.1552 22.8366 28.3878L22.6262 30.5778L11.5902 30.6137L11.6671 31.2086L11.6363 42.0149C12.2725 41.8406 12.9447 41.6816 13.6476 41.5328L13.781 32.3985L16.6439 32.4293L16.7157 40.9687C17.5212 40.8456 18.3575 40.7276 19.2195 40.625L19.4144 32.46L22.2363 32.4908L22.5749 40.2865C23.796 40.184 25.0479 40.0985 26.3305 40.0301L26.151 30.2854H24.7965L24.6066 28.3057L30.0554 25.1156L29.8091 17.1506L32.9953 17.2481L33.0671 23.3667L35.6324 21.8742L35.5042 17.325L38.6852 17.4225L38.7365 21.7563L41.5994 23.2949L41.4301 17.5353L44.6111 17.6327L44.6881 24.9105L50.6191 28.0493L50.3677 30.2957H48.9465L48.6797 40.3943C50.0137 40.49 51.3203 40.6028 52.5995 40.7327L52.774 33.255H55.6369L55.9704 41.0764C56.7964 41.1789 57.6122 41.2815 58.3972 41.3892L58.351 33.2858L61.1883 33.3165L61.1575 41.8149C61.9117 41.9431 62.63 42.0714 63.3277 42.2047L63.5535 33.3422L63.6458 30.7778L52.6765 30.8291L52.502 28.7776C56.191 28.4955 62.0502 27.0953 64.3026 22.4128L73.1222 23.1308L72.7322 42.1585L75 42.097L74.959 46ZM31.5382 30.3008L31.5997 39.1377H34.8782L35.2169 30.3111L31.5382 30.3008ZM40.0705 30.3008L40.2808 39.1172H43.5285L43.5901 30.3111L40.0705 30.3008ZM35.4529 6.42635L36.5457 0.512878L37.8797 0L38.9417 6.43148C42.251 7.15977 45.1344 9.99086 45.1344 14.935L29.2961 14.8068C29.2961 9.93444 32.1692 7.14438 35.4529 6.42635Z" fill="#1D87D3"/>
</svg>
